<svg height="512pt" viewBox="0 0 512 512" width="512pt" xmlns="http://www.w3.org/2000/svg"><path d="m512 256c0 69.664062-27.824219 132.835938-72.976562 178.992188-11.242188 11.492187-23.5625 21.929687-36.789063 31.15625-41.453125 28.902343-91.859375 45.851562-146.234375 45.851562s-104.792969-16.949219-146.242188-45.859375c-13.230468-9.21875-25.539062-19.65625-36.78125-31.148437-45.152343-46.15625-72.976562-109.328126-72.976562-178.992188 0-141.386719 114.613281-256 256-256s256 114.613281 256 256zm0 0" fill="#f76c59"/><path d="m379.960938 9.28125v202.824219h-247.929688v-202.824219zm0 0" fill="#ffda73"/><path d="m132.03125 185.375h247.929688v26.730469h-247.929688zm0 0" fill="#f9a54b"/><path d="m132.035156 9.28125h18.140625v202.828125h-18.140625zm0 0" fill="#f9a54b"/><path d="m294.464844 129.910156h-76.9375c-10.113282 0-18.316406-8.203125-18.316406-18.316406 0-10.117188 8.203124-18.320312 18.316406-18.320312h76.9375c10.117187 0 18.316406 8.203124 18.316406 18.320312 0 10.113281-8.199219 18.316406-18.316406 18.316406zm0 0" fill="#f9a54b"/><path d="m289.207031 84.585938-33.210937-19.695313-33.210938 19.695313v-75.304688h66.421875zm0 0" fill="#55627a"/><path d="m223.085938 208.21875h65.828124v105.53125h-65.828124zm0 0" fill="#36435e"/><path d="m288.914062 245.3125v68.4375h-44.929687v-49.230469c0-10.609375 8.601563-19.207031 19.210937-19.207031zm0 0" fill="#55627a"/><path d="m452.257812 204.789062v19.1875c0 22.394532-18.164062 40.542969-40.558593 40.542969h-311.410157c-22.394531 0-40.546874-18.148437-40.546874-40.542969v-19.1875zm0 0" fill="#ccc"/><path d="m452.257812 204.789062v19.1875c0 22.394532-18.164062 40.542969-40.558593 40.542969h-257.777344c-22.390625 0-40.542969-18.148437-40.542969-40.542969v-19.1875zm0 0" fill="#e6e6e6"/><path d="m439.023438 434.992188c-11.242188 11.492187-23.5625 21.929687-36.789063 31.15625-41.453125 28.902343-91.859375 45.851562-146.234375 45.851562s-104.792969-16.949219-146.242188-45.859375c-13.230468-9.21875-25.539062-19.65625-36.78125-31.148437 20.78125-81.703126 94.84375-142.136719 183.023438-142.136719 88.167969 0 162.242188 60.433593 183.023438 142.136719zm0 0" fill="#52b5d8"/><path d="m402.234375 466.148438c-3.367187 2.34375-6.78125 4.609374-10.261719 6.78125-11.066406 6.960937-22.695312 13.09375-34.816406 18.308593-28.410156 12.234375-59.484375 19.476563-92.117188 20.605469-3 .105469-6.007812.15625-9.039062.15625s-6.050781-.050781-9.046875-.167969c-32.855469-1.128906-64.128906-8.453125-92.695313-20.855469-12.128906-5.246093-23.761718-11.421874-34.824218-18.421874-3.28125-2.058594-6.5-4.199219-9.675782-6.414063 7.773438-73.90625 70.277344-131.5 146.242188-131.5 75.953125 0 138.46875 57.59375 146.234375 131.507813zm0 0" fill="#92dcf0"/><path d="m292.058594 453.769531h-27.019532v58.074219c-3 .105469-6.007812.15625-9.039062.15625s-6.050781-.050781-9.046875-.167969v-58.0625h-27.023437l36.058593-62.464843zm0 0" fill="#f76c59"/><g fill="#fff"><path d="m275.375 362.390625c0 10.910156-8.847656 19.753906-19.757812 19.753906-10.910157 0-19.753907-8.84375-19.753907-19.753906s8.84375-19.753906 19.753907-19.753906c10.910156 0 19.757812 8.84375 19.757812 19.753906zm0 0"/><path d="m216.320312 378.214844c0 10.910156-8.84375 19.753906-19.753906 19.753906s-19.753906-8.84375-19.753906-19.753906 8.84375-19.753906 19.753906-19.753906 19.753906 8.84375 19.753906 19.753906zm0 0"/><path d="m173.09375 421.441406c0 10.910156-8.84375 19.757813-19.753906 19.757813s-19.753906-8.847657-19.753906-19.757813 8.84375-19.753906 19.753906-19.753906 19.753906 8.84375 19.753906 19.753906zm0 0"/><path d="m157.269531 480.496094c0 3.855468-1.097656 7.449218-3.011719 10.480468-12.128906-5.246093-23.761718-11.421874-34.824218-18.421874 3.050781-6.957032 9.996094-11.816407 18.085937-11.816407 10.910157 0 19.75 8.847657 19.75 19.757813zm0 0"/><path d="m377.652344 421.441406c0 10.910156-8.84375 19.757813-19.753906 19.757813-10.910157 0-19.757813-8.847657-19.757813-19.757813s8.847656-19.753906 19.757813-19.753906c10.910156 0 19.753906 8.84375 19.753906 19.753906zm0 0"/><path d="m334.425781 378.214844c0 10.910156-8.84375 19.753906-19.753906 19.753906-10.914063 0-19.757813-8.84375-19.757813-19.753906s8.84375-19.753906 19.757813-19.753906c10.910156 0 19.753906 8.84375 19.753906 19.753906zm0 0"/></g></svg>